<svg xmlns="http://www.w3.org/2000/svg" width="32" height="32" viewBox="0 0 32 32" fill="none">
  <defs>
    <linearGradient id="shieldGradient" x1="0%" y1="0%" x2="100%" y2="100%">
      <stop offset="0%" style="stop-color:#4285F4;stop-opacity:1" />
      <stop offset="50%" style="stop-color:#AA00FF;stop-opacity:1" />
      <stop offset="100%" style="stop-color:#00E676;stop-opacity:1" />
    </linearGradient>
  </defs>

  <!-- Main Shield -->
  <path d="M16 3 L26 7 L26 16 C26 22 22 26 16 29 C10 26 6 22 6 16 L6 7 Z"
        fill="url(#shieldGradient)" opacity="0.2"/>
  <path d="M16 3 L26 7 L26 16 C26 22 22 26 16 29 C10 26 6 22 6 16 L6 7 Z"
        stroke="url(#shieldGradient)" stroke-width="2" fill="none"/>

  <!-- Inner Circuit Pattern -->
  <circle cx="16" cy="14" r="3" fill="#4285F4"/>
  <line x1="16" y1="11" x2="16" y2="7" stroke="#4285F4" stroke-width="1.5"/>
  <line x1="19" y1="14" x2="22" y2="14" stroke="#AA00FF" stroke-width="1.5"/>
  <line x1="13" y1="14" x2="10" y2="14" stroke="#00E676" stroke-width="1.5"/>
  <line x1="16" y1="17" x2="16" y2="21" stroke="#4285F4" stroke-width="1.5"/>

  <!-- Corner Nodes -->
  <circle cx="16" cy="7" r="1.5" fill="#4285F4"/>
  <circle cx="22" cy="14" r="1.5" fill="#AA00FF"/>
  <circle cx="10" cy="14" r="1.5" fill="#00E676"/>
  <circle cx="16" cy="21" r="1.5" fill="#4285F4"/>
</svg>